<?xml version="1.0" encoding="UTF-8"?><!DOCTYPE svg PUBLIC "-//W3C//DTD SVG 1.1//EN"
    "http://www.w3.org/Graphics/SVG/1.1/DTD/svg11.dtd">
<svg xmlns="http://www.w3.org/2000/svg" version="1.1" width="512px" height="512px"
    style="shape-rendering:geometricPrecision; text-rendering:geometricPrecision; image-rendering:optimizeQuality; fill-rule:evenodd; clip-rule:evenodd">
    <g>
        <path style="opacity:0.979" fill="#FFFFFF"
            d="M 227.5,63.5 C 232.93,63.161 238.264,63.661 243.5,65C 286.833,86.6667 330.167,108.333 373.5,130C 403.652,148.444 421.152,175.277 426,210.5C 426.667,227.5 426.667,244.5 426,261.5C 421.532,273.156 413.032,278.323 400.5,277C 392.523,275.025 387.023,270.192 384,262.5C 383.667,249.5 383.333,236.5 383,223.5C 382.184,199.353 371.684,180.853 351.5,168C 319.833,152.167 288.167,136.333 256.5,120.5C 255.667,205.498 255.167,290.498 255,375.5C 248.944,408.223 230.444,430.723 199.5,443C 162.274,454.237 130.44,445.737 104,417.5C 79.8998,383.966 78.2332,349.299 99,313.5C 124,281.388 156.333,270.388 196,280.5C 201.599,282.254 206.932,284.587 212,287.5C 212.333,218.167 212.667,148.833 213,79.5C 214.947,71.3932 219.78,66.0599 227.5,63.5 Z M 169.5,319.5 C 195.296,322.13 209.629,336.296 212.5,362C 209.667,387.5 195.5,401.667 170,404.5C 144.328,401.828 130.494,387.662 128.5,362C 129.18,343.632 137.846,330.632 154.5,323C 159.545,321.425 164.545,320.259 169.5,319.5 Z" />
    </g>
</svg>
