<svg width="24" height="24" viewBox="0 0 24 24" fill="none" xmlns="http://www.w3.org/2000/svg">
    <path fill-rule="evenodd" clip-rule="evenodd"
        d="M14.25 3C14.25 2.58579 14.5858 2.25 15 2.25H21C21.4142 2.25 21.75 2.58579 21.75 3V9C21.75 9.41421 21.4142 9.75 21 9.75C20.5858 9.75 20.25 9.41421 20.25 9V3.75H15C14.5858 3.75 14.25 3.41421 14.25 3Z"
        fill="white" />
    <path fill-rule="evenodd" clip-rule="evenodd"
        d="M2.25 3C2.25 2.58579 2.58579 2.25 3 2.25H9C9.41421 2.25 9.75 2.58579 9.75 3C9.75 3.41421 9.41421 3.75 9 3.75H3.75V9C3.75 9.41421 3.41421 9.75 3 9.75C2.58579 9.75 2.25 9.41421 2.25 9V3Z"
        fill="white" />
    <path fill-rule="evenodd" clip-rule="evenodd"
        d="M21 14.25C21.4142 14.25 21.75 14.5858 21.75 15V21C21.75 21.4142 21.4142 21.75 21 21.75H15C14.5858 21.75 14.25 21.4142 14.25 21C14.25 20.5858 14.5858 20.25 15 20.25H20.25V15C20.25 14.5858 20.5858 14.25 21 14.25Z"
        fill="white" />
    <path fill-rule="evenodd" clip-rule="evenodd"
        d="M3 14.25C3.41421 14.25 3.75 14.5858 3.75 15V20.25H9C9.41421 20.25 9.75 20.5858 9.75 21C9.75 21.4142 9.41421 21.75 9 21.75H3C2.58579 21.75 2.25 21.4142 2.25 21V15C2.25 14.5858 2.58579 14.25 3 14.25Z"
        fill="white" />
    <path fill-rule="evenodd" clip-rule="evenodd"
        d="M21.5303 2.46967C21.8232 2.76256 21.8232 3.23744 21.5303 3.53033L15.0303 10.0303C14.7374 10.3232 14.2626 10.3232 13.9697 10.0303C13.6768 9.73744 13.6768 9.26256 13.9697 8.96967L20.4697 2.46967C20.7626 2.17678 21.2374 2.17678 21.5303 2.46967Z"
        fill="white" />
    <path fill-rule="evenodd" clip-rule="evenodd"
        d="M10.0303 13.9697C10.3232 14.2626 10.3232 14.7374 10.0303 15.0303L3.53033 21.5303C3.23744 21.8232 2.76256 21.8232 2.46967 21.5303C2.17678 21.2374 2.17678 20.7626 2.46967 20.4697L8.96967 13.9697C9.26256 13.6768 9.73744 13.6768 10.0303 13.9697Z"
        fill="white" />
</svg>
