<svg width="50" height="50" viewBox="0 0 50 50" fill="none" xmlns="http://www.w3.org/2000/svg">
<path fill-rule="evenodd" clip-rule="evenodd" d="M25 5C20.8579 5 17.5 8.35787 17.5 12.5V17.5H32.5V12.5C32.5 8.35787 29.1422 5 25 5ZM10 17.5H12.5V12.5C12.5 5.59645 18.0964 0 25 0C31.9035 0 37.5 5.59645 37.5 12.5V17.5H39.9907C42.7515 17.5 44.9897 19.7377 44.9907 22.4986L44.9965 42.4985C44.9972 45.2605 42.7585 47.5 39.9965 47.5H10.0084C7.24777 47.5 5.00955 45.2627 5.0084 42.502L5 22.5021C4.99885 19.7398 7.23775 17.5 10 17.5ZM30.0035 30C30.0035 31.8172 29.034 33.4082 27.584 34.2835L30.7462 38.5C31.9822 40.148 30.8065 42.5 28.7462 42.5H21.2463C19.1862 42.5 18.0102 40.148 19.2463 38.5L22.4131 34.2775C20.9686 33.401 20.0035 31.8132 20.0035 30C20.0035 27.2385 22.2421 25 25.0035 25C27.765 25 30.0035 27.2385 30.0035 30Z" fill="white"/>
</svg>
