<svg width="24" height="25" viewBox="0 0 24 25" fill="none" xmlns="http://www.w3.org/2000/svg">
    <path
        d="M4.028 20.8819C4.18767 20.9673 4.36754 21.0078 4.54842 20.999C4.72929 20.9902 4.90439 20.9325 5.055 20.8319L17.055 12.8319C17.192 12.7406 17.3043 12.6169 17.3819 12.4717C17.4596 12.3266 17.5002 12.1645 17.5002 11.9999C17.5002 11.8353 17.4596 11.6732 17.3819 11.5281C17.3043 11.3829 17.192 11.2592 17.055 11.1679L5.055 3.16791C4.9044 3.06743 4.72935 3.00972 4.54852 3.00093C4.36769 2.99215 4.18786 3.03262 4.02824 3.11803C3.86861 3.20344 3.73516 3.33058 3.64213 3.4859C3.5491 3.64121 3.49997 3.81886 3.5 3.99991V19.9999C3.49993 20.1809 3.549 20.3586 3.64199 20.5139C3.73498 20.6693 3.86839 20.7965 4.028 20.8819ZM5.5 5.86891L14.7 11.9999L5.5 18.1309V5.86891ZM18.5 17.9999V5.99991C18.5 5.73469 18.6054 5.48034 18.7929 5.2928C18.9804 5.10526 19.2348 4.99991 19.5 4.99991C19.7652 4.99991 20.0196 5.10526 20.2071 5.2928C20.3946 5.48034 20.5 5.73469 20.5 5.99991V17.9999C20.5 18.2651 20.3946 18.5195 20.2071 18.707C20.0196 18.8945 19.7652 18.9999 19.5 18.9999C19.2348 18.9999 18.9804 18.8945 18.7929 18.707C18.6054 18.5195 18.5 18.2651 18.5 17.9999Z"
        fill="white" />
</svg>
