<svg width="24" height="24" viewBox="0 0 24 24" fill="none" xmlns="http://www.w3.org/2000/svg">
    <path
        d="M8 6L2 10V2L8 6ZM3 13.5H21C21.2652 13.5 21.5196 13.3946 21.7071 13.2071C21.8946 13.0196 22 12.7652 22 12.5C22 12.2348 21.8946 11.9804 21.7071 11.7929C21.5196 11.6054 21.2652 11.5 21 11.5H3C2.73478 11.5 2.48043 11.6054 2.29289 11.7929C2.10536 11.9804 2 12.2348 2 12.5C2 12.7652 2.10536 13.0196 2.29289 13.2071C2.48043 13.3946 2.73478 13.5 3 13.5V13.5ZM10 6C10 6.26522 10.1054 6.51957 10.2929 6.70711C10.4804 6.89464 10.7348 7 11 7H21C21.2652 7 21.5196 6.89464 21.7071 6.70711C21.8946 6.51957 22 6.26522 22 6C22 5.73478 21.8946 5.48043 21.7071 5.29289C21.5196 5.10536 21.2652 5 21 5H11C10.7348 5 10.4804 5.10536 10.2929 5.29289C10.1054 5.48043 10 5.73478 10 6ZM3 20H21C21.2652 20 21.5196 19.8946 21.7071 19.7071C21.8946 19.5196 22 19.2652 22 19C22 18.7348 21.8946 18.4804 21.7071 18.2929C21.5196 18.1054 21.2652 18 21 18H3C2.73478 18 2.48043 18.1054 2.29289 18.2929C2.10536 18.4804 2 18.7348 2 19C2 19.2652 2.10536 19.5196 2.29289 19.7071C2.48043 19.8946 2.73478 20 3 20V20Z"
        fill="white" />
</svg>
