<svg width="24" height="24" viewBox="0 0 24 24" fill="none" xmlns="http://www.w3.org/2000/svg">
    <path fill-rule="evenodd" clip-rule="evenodd"
        d="M5.29847 6.98938C5.29847 6.98967 5.29846 6.98998 5.29846 6.9903V17.5031C5.29846 17.5034 5.29847 17.5037 5.29847 17.504H8.92144C9.33565 17.504 9.67144 17.8398 9.67144 18.254C9.67144 18.6682 9.33565 19.004 8.92144 19.004H5.27729C4.43962 19.004 3.79846 18.3108 3.79846 17.5031V6.9903C3.79846 6.18263 4.43961 5.48938 5.27729 5.48938H18.3962C19.2339 5.48938 19.8751 6.18263 19.8751 6.9903V9.24304C19.8751 9.65725 19.5393 9.99304 19.1251 9.99304C18.7108 9.99304 18.3751 9.65725 18.3751 9.24304V6.9903C18.3751 6.98998 18.375 6.98967 18.375 6.98938H5.29847Z"
        fill="white" />
    <path fill-rule="evenodd" clip-rule="evenodd"
        d="M18.3757 6.98938C18.3757 6.98967 18.3757 6.98998 18.3757 6.9903V17.5031C18.3757 17.5034 18.3757 17.5037 18.3757 17.504H7.82888C7.41466 17.504 7.07888 17.8398 7.07888 18.254C7.07888 18.6682 7.41466 19.004 7.82888 19.004H18.3969C19.2346 19.004 19.8757 18.3108 19.8757 17.5031V6.9903C19.8757 6.18263 19.2346 5.48938 18.3969 5.48938H5.27797C4.44027 5.48938 3.79914 6.18263 3.79914 6.9903V9.24304C3.79914 9.65725 4.13493 9.99304 4.54914 9.99304C4.96336 9.99304 5.29914 9.65725 5.29914 9.24304V6.9903C5.29914 6.98998 5.29915 6.98967 5.29915 6.98938H18.3757Z"
        fill="white" />
    <path fill-rule="evenodd" clip-rule="evenodd"
        d="M17.2556 3.15517C17.2564 2.74093 17.5928 2.40512 18.007 2.40512L22.8658 2.40512C23.2795 2.40512 23.6144 2.74009 23.6144 3.15378L23.6144 7.65927C23.6144 8.07351 23.2786 8.40994 22.8644 8.4107C22.4503 8.41147 22.1145 8.07628 22.1145 7.66204L22.1145 3.90521L18.0042 3.90521C17.59 3.90521 17.2549 3.5694 17.2556 3.15517Z"
        fill="white" />
    <path fill-rule="evenodd" clip-rule="evenodd"
        d="M22.374 3.65934C22.6485 3.969 22.6197 4.44307 22.3095 4.71822L20.0191 6.75023C19.709 7.02537 19.235 6.99739 18.9605 6.68773C18.6859 6.37807 18.7148 5.904 19.0249 5.62886L21.3153 3.59684C21.6255 3.3217 22.0994 3.34968 22.374 3.65934Z"
        fill="white" />
    <path fill-rule="evenodd" clip-rule="evenodd"
        d="M6.74425 21.5072C6.74349 21.9214 6.4071 22.2572 5.99291 22.2572L1.13405 22.2572C0.720398 22.2572 0.385474 21.9223 0.385474 21.5086L0.385474 17.0031C0.385474 16.5888 0.721241 16.2524 1.13543 16.2517C1.54962 16.2509 1.88539 16.5861 1.88539 17.0003L1.88539 20.7571L5.99568 20.7571C6.40987 20.7571 6.74502 21.0929 6.74425 21.5072Z"
        fill="white" />
    <path fill-rule="evenodd" clip-rule="evenodd"
        d="M1.62579 21.003C1.35125 20.6934 1.3801 20.2193 1.69024 19.9441L3.98066 17.9121C4.29079 17.637 4.76476 17.665 5.0393 17.9746C5.31384 18.2843 5.28498 18.7584 4.97485 19.0335L2.68443 21.0655C2.3743 21.3407 1.90033 21.3127 1.62579 21.003Z"
        fill="white" />
</svg>
