<?xml version="1.0" encoding="UTF-8"?><!DOCTYPE svg PUBLIC "-//W3C//DTD SVG 1.1//EN"
    "http://www.w3.org/Graphics/SVG/1.1/DTD/svg11.dtd">
<svg xmlns="http://www.w3.org/2000/svg" version="1.1" width="512px" height="512px"
    style="shape-rendering:geometricPrecision; text-rendering:geometricPrecision; image-rendering:optimizeQuality; fill-rule:evenodd; clip-rule:evenodd">
    <g>
        <path style="opacity:0.973" fill="#FFFFFF"
            d="M 62.5,64.5 C 191.167,64.3333 319.834,64.5 448.5,65C 474,70.5 489.5,86 495,111.5C 495.667,205.167 495.667,298.833 495,392.5C 488.814,419.687 471.981,435.52 444.5,440C 318.5,440.667 192.5,440.667 66.5,440C 36.6667,435.5 19.5,418.333 15,388.5C 14.3333,297.5 14.3333,206.5 15,115.5C 19.6647,88.0048 35.498,71.0048 62.5,64.5 Z M 68.5,102.5 C 192.834,102.333 317.167,102.5 441.5,103C 450,104.833 455.167,110 457,118.5C 457.667,207.833 457.667,297.167 457,386.5C 455.239,393.926 450.739,398.76 443.5,401C 317.833,401.667 192.167,401.667 66.5,401C 60.3333,398.833 56.1667,394.667 54,388.5C 53.3333,297.833 53.3333,207.167 54,116.5C 56.4023,109.232 61.2356,104.566 68.5,102.5 Z" />
    </g>
    <g>
        <path style="opacity:0.966" fill="#FFFFFF"
            d="M 155.5,148.5 C 198.378,147.899 225.211,168.232 236,209.5C 236.499,214.489 236.666,219.489 236.5,224.5C 223.833,224.5 211.167,224.5 198.5,224.5C 196.255,198.088 181.921,185.921 155.5,188C 141.559,192.274 132.726,201.44 129,215.5C 128.333,240.167 128.333,264.833 129,289.5C 133.89,306.617 145.223,315.95 163,317.5C 185.513,314.807 197.346,302.141 198.5,279.5C 211.167,279.5 223.833,279.5 236.5,279.5C 236.477,314.717 220.144,338.884 187.5,352C 152.447,361.649 123.947,352.149 102,323.5C 95.0151,312.879 91.0151,301.213 90,288.5C 89.3333,264.5 89.3333,240.5 90,216.5C 95.7905,178.212 117.624,155.545 155.5,148.5 Z" />
    </g>
    <g>
        <path style="opacity:0.969" fill="#FFFFFF"
            d="M 339.5,148.5 C 383.25,148.101 410.083,169.101 420,211.5C 420.499,215.821 420.666,220.154 420.5,224.5C 407.833,224.5 395.167,224.5 382.5,224.5C 380.101,198.298 365.768,186.131 339.5,188C 322.593,193.249 313.426,204.749 312,222.5C 311.333,242.5 311.333,262.5 312,282.5C 314.924,305.759 328.091,317.259 351.5,317C 371.489,312.509 381.822,300.009 382.5,279.5C 395.167,279.5 407.833,279.5 420.5,279.5C 420.03,316.461 402.363,340.961 367.5,353C 326.929,361.462 297.429,347.296 279,310.5C 276.551,304.37 274.884,298.037 274,291.5C 273.333,265.5 273.333,239.5 274,213.5C 278.138,186.698 292.304,167.198 316.5,155C 324.071,152.028 331.738,149.861 339.5,148.5 Z" />
    </g>
</svg>
